<svg width="26" height="26" viewBox="0 0 26 26" fill="none" xmlns="http://www.w3.org/2000/svg"><path fill-rule="evenodd" clip-rule="evenodd" d="M10 0C4.47715 0 0 4.47715 0 10V16C0 21.5228 4.47715 26 10 26H16C21.5228 26 26 21.5228 26 16V10C26 4.47715 21.5228 0 16 0H10ZM14.8748 13L17.9083 16.0334C17.9373 16.0624 17.9604 16.0968 17.9762 16.1348C17.9919 16.1727 18 16.2133 18 16.2544C18 16.2954 17.9919 16.3361 17.9762 16.374C17.9604 16.4119 17.9373 16.4463 17.9083 16.4753L16.4753 17.9083C16.4167 17.9668 16.3372 17.9997 16.2544 17.9997C16.1715 17.9997 16.092 17.9668 16.0334 17.9083L13 14.8748L9.96656 17.9083C9.93758 17.9373 9.90316 17.9604 9.86525 17.9762C9.82734 17.9919 9.78669 18 9.74564 18C9.70459 18 9.66395 17.9919 9.62604 17.9762C9.58813 17.9604 9.5537 17.9373 9.52473 17.9083L8.09175 16.4753C8.03317 16.4167 8.00026 16.3372 8.00026 16.2544C8.00026 16.1715 8.03317 16.092 8.09175 16.0334L11.1252 13L8.09175 9.96656C8.06267 9.93758 8.03959 9.90316 8.02385 9.86525C8.0081 9.82734 8 9.78669 8 9.74564C8 9.70459 8.0081 9.66395 8.02385 9.62604C8.03959 9.58813 8.06267 9.5537 8.09175 9.52473L9.52473 8.09175C9.58332 8.03317 9.66279 8.00026 9.74564 8.00026C9.8285 8.00026 9.90796 8.03317 9.96656 8.09175L13 11.1252L16.0334 8.09175C16.0624 8.06267 16.0968 8.03959 16.1348 8.02385C16.1727 8.0081 16.2133 8 16.2544 8C16.2954 8 16.3361 8.0081 16.374 8.02385C16.4119 8.03959 16.4463 8.06267 16.4753 8.09175L17.9083 9.52473C17.9664 9.58356 17.999 9.66294 17.999 9.74564C17.999 9.82835 17.9664 9.90772 17.9083 9.96656L14.8748 13Z" fill="#C4C4C4"/></svg>
