<svg width="25" height="25" viewBox="0 0 25 25" fill="none" xmlns="http://www.w3.org/2000/svg">
    <path d="M10.4861 0.679012C11.0497 0.240501 11.763 0 12.5 0C13.237 0 13.9503 0.240501 14.5139 0.679012L23.8889 7.98159C24.5944 8.52912 25 9.33568 25 10.1871V22.756C25 23.3512 24.7439 23.9219 24.2881 24.3427C23.8323 24.7636 23.2141 25 22.5694 25H18.4028C17.7582 25 17.1399 24.7636 16.6841 24.3427C16.2283 23.9219 15.9722 23.3512 15.9722 22.756V16.3446C15.9722 16.0896 15.8625 15.8449 15.6671 15.6646C15.4718 15.4842 15.2068 15.3829 14.9306 15.3829H10.0694C9.79318 15.3829 9.52823 15.4842 9.33288 15.6646C9.13752 15.8449 9.02778 16.0896 9.02778 16.3446V22.756C9.02778 23.3512 8.7717 23.9219 8.31588 24.3427C7.86007 24.7636 7.24185 25 6.59722 25H2.43056C2.11137 25 1.79531 24.942 1.50042 24.8292C1.20553 24.7164 0.937591 24.5511 0.711893 24.3427C0.486195 24.1344 0.307162 23.887 0.185015 23.6147C0.0628683 23.3425 0 23.0507 0 22.756V10.1858C0 9.33568 0.405555 8.52913 1.11111 7.98031L10.4861 0.679012Z" fill="#23873F"/>
</svg>