<svg width="25" height="25" viewBox="0 0 25 25" fill="none" xmlns="http://www.w3.org/2000/svg">
    <path d="M14.4032 25H9.85315C9.56807 25 9.29153 24.9026 9.0694 24.7239C8.84728 24.5452 8.69291 24.296 8.6319 24.0175L8.12315 21.6625C7.44448 21.3651 6.80094 20.9933 6.2044 20.5538L3.90815 21.285C3.63636 21.3717 3.34309 21.3628 3.07705 21.2598C2.81101 21.1568 2.58822 20.9659 2.44565 20.7188L0.165651 16.78C0.024583 16.5327 -0.0283706 16.2448 0.0154543 15.9634C0.0592791 15.6821 0.197288 15.424 0.406901 15.2313L2.18815 13.6063C2.10715 12.8701 2.10715 12.1274 2.18815 11.3912L0.406901 9.77C0.196991 9.57722 0.0587945 9.31884 0.0149625 9.03723C-0.0288695 8.75561 0.024263 8.46746 0.165651 8.22L2.44065 4.27875C2.58322 4.03164 2.80602 3.84074 3.07205 3.73773C3.33809 3.63473 3.63136 3.62583 3.90315 3.7125L6.1994 4.44375C6.5044 4.21875 6.8219 4.00875 7.1494 3.81875C7.46565 3.64125 7.79065 3.48 8.12315 3.33625L8.63315 0.98375C8.69387 0.705247 8.84794 0.45586 9.06984 0.276936C9.29173 0.0980123 9.56811 0.000299957 9.85315 0H14.4032C14.6882 0.000299957 14.9646 0.0980123 15.1865 0.276936C15.4084 0.45586 15.5624 0.705247 15.6232 0.98375L16.1382 3.3375C16.816 3.63658 17.4593 4.00834 18.0569 4.44625L20.3544 3.715C20.626 3.62865 20.919 3.63771 21.1848 3.7407C21.4506 3.84369 21.6731 4.03441 21.8157 4.28125L24.0907 8.2225C24.3807 8.73125 24.2807 9.375 23.8494 9.77125L22.0682 11.3962C22.1492 12.1324 22.1492 12.8751 22.0682 13.6112L23.8494 15.2362C24.2807 15.6337 24.3807 16.2763 24.0907 16.785L21.8157 20.7262C21.6731 20.9734 21.4503 21.1643 21.1843 21.2673C20.9182 21.3703 20.6249 21.3792 20.3532 21.2925L18.0569 20.5612C17.4608 21.0004 16.8177 21.3719 16.1394 21.6687L15.6232 24.0175C15.5622 24.2958 15.408 24.5449 15.1861 24.7236C14.9643 24.9022 14.688 24.9998 14.4032 25ZM12.1232 7.5C10.7971 7.5 9.5253 8.02678 8.58762 8.96447C7.64994 9.90215 7.12315 11.1739 7.12315 12.5C7.12315 13.8261 7.64994 15.0979 8.58762 16.0355C9.5253 16.9732 10.7971 17.5 12.1232 17.5C13.4492 17.5 14.721 16.9732 15.6587 16.0355C16.5964 15.0979 17.1232 13.8261 17.1232 12.5C17.1232 11.1739 16.5964 9.90215 15.6587 8.96447C14.721 8.02678 13.4492 7.5 12.1232 7.5Z" fill="#C4C4C4"/>
</svg>